<?xml version="1.0" standalone="no"?>
<!DOCTYPE svg PUBLIC "-//W3C//DTD SVG 20010904//EN"
 "http://www.w3.org/TR/2001/REC-SVG-20010904/DTD/svg10.dtd">
<svg version="1.0" xmlns="http://www.w3.org/2000/svg"
 width="1080.000000pt" height="1080.000000pt" viewBox="0 0 1080.000000 1080.000000"
 preserveAspectRatio="xMidYMid meet">

<g transform="translate(0.000000,1080.000000) scale(0.100000,-0.100000)"
fill="#000000" stroke="none">
<path d="M2802 10789 c-4 -4 -45 -10 -92 -14 -46 -3 -89 -10 -95 -14 -5 -5
-31 -12 -58 -15 -26 -4 -59 -14 -75 -22 -15 -7 -33 -14 -40 -14 -7 0 -20 -4
-30 -9 -50 -25 -111 -51 -121 -51 -6 0 -11 -4 -11 -9 0 -5 -13 -12 -30 -16
-16 -4 -30 -10 -30 -15 0 -4 -8 -11 -17 -14 -35 -13 -73 -37 -73 -47 0 -5 -6
-9 -13 -9 -8 0 -24 -11 -37 -25 -13 -14 -28 -25 -34 -25 -16 -1 -146 -123
-146 -138 0 -7 -4 -12 -10 -12 -11 0 -93 -86 -99 -104 -2 -6 -16 -27 -30 -46
-36 -48 -51 -72 -57 -92 -4 -10 -10 -18 -15 -18 -5 0 -9 -6 -9 -14 0 -7 -6
-19 -14 -25 -8 -7 -17 -27 -20 -46 -4 -19 -11 -35 -16 -35 -4 0 -11 -14 -15
-31 -4 -17 -13 -42 -21 -57 -8 -15 -14 -35 -14 -44 0 -9 -4 -19 -9 -23 -5 -3
-13 -30 -16 -60 -4 -31 -11 -58 -16 -61 -5 -3 -9 -20 -9 -39 0 -19 -5 -37 -11
-41 -7 -4 -9 -22 -6 -45 3 -22 2 -39 -2 -39 -11 0 -10 -290 1 -296 4 -3 5 -16
2 -29 -3 -13 -2 -30 2 -37 4 -7 10 -31 12 -53 2 -22 7 -44 11 -50 5 -5 12 -31
15 -58 4 -26 14 -59 22 -75 7 -15 14 -32 14 -39 0 -6 6 -24 14 -40 24 -46 46
-100 46 -112 0 -6 4 -11 9 -11 5 0 12 -13 16 -30 4 -16 11 -30 16 -30 5 0 14
-10 19 -22 9 -21 21 -41 42 -72 4 -6 21 -27 38 -47 16 -20 30 -41 30 -45 0
-10 195 -203 221 -219 66 -41 178 -117 199 -133 l25 -20 -21 -29 c-27 -36
-179 -345 -176 -356 1 -5 -7 -21 -18 -37 -11 -16 -19 -32 -18 -37 2 -8 -19
-61 -48 -116 -8 -16 -17 -46 -20 -68 -4 -21 -10 -39 -14 -39 -4 0 -11 -20 -14
-45 -4 -25 -11 -45 -16 -45 -4 0 -11 -22 -15 -50 -4 -27 -11 -52 -16 -55 -4
-3 -11 -28 -15 -56 -4 -27 -10 -52 -15 -54 -4 -3 -11 -31 -15 -63 -3 -31 -11
-62 -15 -68 -5 -7 -10 -28 -11 -48 -1 -20 -5 -39 -9 -42 -5 -2 -6 -11 -2 -19
3 -8 1 -15 -4 -15 -5 0 -10 -23 -11 -52 -1 -28 -7 -57 -13 -64 -6 -8 -9 -28
-7 -44 3 -17 1 -33 -4 -36 -4 -3 -8 -23 -8 -45 0 -22 -5 -39 -11 -39 -8 0 -8
-4 0 -13 6 -8 7 -17 1 -23 -5 -5 -12 -56 -16 -114 -4 -58 -11 -107 -15 -108
-5 -2 -6 -9 -2 -15 10 -17 11 -47 1 -53 -12 -8 -10 -441 2 -449 8 -5 8 -11 0
-20 -6 -8 -7 -14 -1 -17 5 -1 11 -30 14 -63 3 -33 6 -62 7 -65 1 -3 1 -17 0
-32 -1 -14 3 -29 9 -33 6 -3 11 -21 11 -40 0 -19 5 -37 10 -40 6 -4 8 -15 5
-25 -3 -10 -2 -27 3 -37 32 -62 36 -73 24 -85 -8 -8 -12 -8 -12 -1 0 6 -21 14
-47 18 -27 4 -52 10 -58 15 -5 4 -32 11 -60 15 -27 4 -55 11 -62 16 -7 7 -14
6 -18 -2 -6 -8 -10 -7 -16 2 -12 19 -392 20 -410 2 -7 -7 -23 -13 -35 -13 -12
0 -27 -7 -34 -15 -7 -8 -22 -15 -33 -15 -23 0 -30 -6 -102 -77 -62 -62 -71
-73 -80 -104 -4 -13 -10 -26 -14 -29 -12 -10 -41 -81 -41 -100 0 -10 -5 -22
-10 -25 -6 -3 -7 -17 -4 -31 3 -13 2 -30 -4 -37 -12 -15 -12 -117 0 -117 5 0
8 -10 7 -22 -4 -30 47 -136 72 -151 10 -6 19 -17 19 -24 0 -7 7 -13 15 -13 8
0 15 -5 15 -11 0 -11 52 -58 79 -72 9 -4 34 -19 56 -33 22 -13 48 -27 57 -30
10 -4 18 -10 18 -14 0 -5 14 -11 31 -15 26 -6 71 -25 149 -65 9 -4 30 -11 49
-15 18 -4 44 -13 59 -21 15 -8 39 -14 55 -14 15 0 27 -4 27 -9 0 -5 20 -12 45
-15 25 -4 45 -11 45 -15 0 -5 22 -11 50 -15 27 -4 51 -10 54 -15 3 -4 26 -11
52 -15 26 -3 53 -11 60 -17 10 -8 14 -8 14 -1 0 7 10 5 28 -4 15 -7 37 -14 49
-14 12 0 24 -4 27 -9 3 -4 29 -11 58 -15 29 -4 58 -12 64 -17 7 -6 27 -11 46
-12 18 -2 43 -8 55 -15 12 -7 33 -12 47 -12 14 0 27 -4 30 -9 3 -5 26 -12 51
-15 24 -4 47 -11 50 -15 2 -5 27 -11 54 -15 28 -4 53 -11 56 -15 3 -5 28 -12
55 -16 28 -4 50 -10 50 -15 0 -4 20 -11 45 -14 25 -4 45 -11 45 -15 0 -5 19
-11 42 -15 23 -4 47 -11 53 -15 5 -5 24 -11 40 -15 17 -4 44 -13 60 -21 66
-30 111 -49 121 -51 12 -2 59 -22 130 -55 23 -10 46 -19 52 -19 6 0 23 -6 39
-14 46 -24 100 -46 112 -46 6 0 19 -4 29 -9 55 -26 91 -40 122 -47 19 -3 37
-9 40 -13 3 -3 14 -11 25 -17 22 -12 33 -77 17 -97 -5 -7 -13 -52 -17 -102 -4
-49 -12 -96 -17 -102 -7 -9 -7 -13 2 -13 9 0 9 -4 2 -13 -6 -7 -14 -66 -17
-132 -4 -66 -12 -126 -17 -132 -7 -9 -7 -13 2 -13 10 0 10 -3 0 -15 -10 -12
-10 -15 0 -15 10 0 10 -3 0 -15 -10 -12 -14 -100 -15 -374 l-2 -359 -24 -33
c-31 -44 -48 -70 -56 -89 -3 -8 -16 -29 -28 -45 -12 -17 -32 -51 -44 -78 -12
-26 -26 -47 -30 -47 -5 0 -12 -13 -16 -30 -4 -16 -10 -30 -15 -30 -4 0 -10 -8
-14 -17 -10 -30 -75 -146 -92 -164 -9 -10 -13 -22 -10 -27 3 -5 -4 -18 -15
-28 -11 -10 -18 -23 -15 -30 3 -7 -4 -20 -15 -30 -10 -9 -19 -25 -19 -35 0
-10 -7 -24 -15 -33 -8 -8 -15 -21 -15 -30 0 -8 -16 -45 -35 -83 -19 -37 -35
-73 -35 -80 0 -6 -6 -24 -14 -40 -23 -44 -50 -107 -51 -118 -2 -14 -14 -46
-31 -78 -7 -16 -14 -39 -14 -52 0 -13 -5 -27 -11 -30 -6 -4 -8 -13 -5 -21 3
-7 1 -16 -4 -19 -6 -4 -10 -19 -10 -35 0 -16 -4 -31 -9 -34 -8 -5 -20 -66 -26
-126 0 -9 -4 -21 -9 -28 -11 -19 -9 -243 3 -255 6 -6 11 -20 11 -30 0 -29 61
-149 91 -177 14 -14 29 -33 33 -43 3 -11 15 -21 26 -24 11 -3 20 -12 20 -19 0
-8 7 -14 15 -14 7 0 18 -6 22 -13 7 -12 27 -27 92 -69 52 -34 165 -88 198 -94
18 -3 35 -10 38 -14 3 -5 24 -11 48 -15 23 -4 47 -11 54 -17 7 -6 14 -5 18 2
5 8 11 7 22 -2 25 -21 299 -16 338 5 17 9 37 17 46 17 8 0 26 11 39 25 13 14
28 25 34 25 6 0 27 19 46 42 19 23 50 59 67 79 18 20 33 40 33 44 0 4 16 28
36 51 19 24 32 44 28 44 -3 0 5 15 18 33 13 17 34 53 47 79 12 26 31 58 41 71
10 13 22 36 25 50 4 15 11 27 15 27 5 0 11 14 15 30 4 17 10 30 15 30 5 0 11
13 15 30 4 16 10 30 15 30 4 0 10 8 14 18 3 9 10 25 16 35 17 29 28 50 52 97
12 25 31 58 43 75 27 40 64 117 65 134 0 10 3 11 14 2 11 -9 16 -9 21 0 6 8 9
8 14 0 4 -6 34 -13 66 -16 33 -3 64 -10 70 -14 5 -5 50 -12 99 -15 49 -4 94
-10 100 -14 15 -9 28 -10 256 -18 113 -3 210 -10 216 -15 6 -5 16 -3 22 3 10
10 17 10 31 1 10 -6 22 -8 27 -3 5 4 112 10 238 13 158 4 231 10 236 18 6 8 9
8 15 0 4 -8 11 -9 18 -3 7 5 50 13 97 17 47 4 90 11 97 16 7 7 14 6 18 -1 5
-8 10 -8 20 0 7 6 35 13 61 16 26 2 51 9 55 15 5 8 8 8 14 0 5 -9 10 -9 21 0
11 9 14 8 14 -2 1 -17 37 -93 65 -134 11 -17 36 -60 55 -98 19 -37 38 -67 42
-67 4 0 8 -11 8 -25 0 -14 6 -28 14 -31 8 -3 18 -19 21 -35 4 -16 10 -29 15
-29 5 0 11 -14 15 -30 4 -17 10 -30 15 -30 4 0 10 -8 14 -17 3 -10 11 -27 17
-38 16 -26 23 -41 50 -95 12 -25 34 -61 48 -80 30 -41 48 -69 58 -90 4 -8 17
-24 30 -36 13 -12 23 -25 23 -30 0 -23 132 -140 180 -159 8 -4 24 -11 34 -17
11 -6 48 -13 83 -16 35 -2 66 -9 69 -14 3 -5 11 -4 19 2 10 8 15 8 20 0 4 -7
11 -8 18 -2 7 5 47 12 90 15 44 4 85 11 92 17 10 8 15 8 20 -1 6 -8 9 -8 15 1
4 6 26 14 49 17 22 3 41 9 41 14 0 4 13 10 30 14 41 9 144 61 207 105 53 37
178 153 200 187 40 61 74 143 79 192 3 31 10 58 15 59 6 2 5 10 -2 18 -9 11
-9 14 1 14 10 0 10 3 0 15 -10 12 -10 15 0 15 10 0 10 3 0 15 -10 11 -10 18
-1 29 7 8 8 16 3 18 -5 1 -12 37 -16 78 -3 40 -11 79 -16 84 -6 6 -10 22 -10
37 0 15 -4 30 -9 33 -4 3 -6 17 -3 31 2 15 0 25 -7 25 -6 0 -11 11 -11 24 0
14 -5 28 -10 31 -6 4 -8 10 -5 15 3 5 1 11 -5 15 -5 3 -10 17 -10 30 0 13 -4
26 -9 29 -4 3 -11 20 -15 38 -3 18 -12 47 -20 63 -28 59 -46 103 -46 114 0 6
-4 11 -10 11 -5 0 -10 8 -10 17 0 9 -43 102 -95 207 -90 179 -105 208 -127
246 -5 8 -11 23 -14 32 -4 10 -10 18 -14 18 -5 0 -11 13 -15 30 -4 16 -11 30
-16 30 -5 0 -17 18 -26 40 -10 22 -21 40 -25 40 -3 0 -18 24 -32 53 -30 60
-41 78 -76 127 l-25 35 -1 354 c-1 263 -4 356 -13 359 -9 3 -9 7 0 18 9 11 9
14 -1 14 -10 0 -10 3 -1 14 7 8 8 16 2 18 -5 1 -12 59 -15 128 -4 70 -12 127
-18 131 -7 4 -7 9 1 14 8 4 9 11 2 18 -5 7 -12 50 -16 97 -4 47 -11 90 -16 97
-7 7 -6 14 2 18 7 5 7 10 2 14 -6 3 -13 23 -16 43 -5 34 -4 37 24 43 16 4 29
10 29 15 0 4 17 11 38 14 20 4 51 13 67 21 64 29 103 45 113 45 6 0 23 6 39
14 45 23 100 46 111 46 6 0 23 6 39 14 40 21 103 48 117 50 10 2 55 21 121 51
17 8 43 17 59 21 16 4 41 13 55 20 14 8 38 14 54 14 15 0 27 4 27 9 0 6 20 13
45 17 25 3 45 10 45 14 0 4 20 11 45 14 24 4 47 11 50 15 2 5 25 12 50 15 24
4 47 11 50 15 2 5 29 12 60 16 30 3 57 11 60 16 4 5 17 9 30 9 13 0 27 5 31
11 3 6 15 9 25 6 10 -3 22 -1 25 4 3 5 18 9 34 9 16 0 31 4 34 9 3 5 26 12 51
15 24 4 47 12 51 18 4 7 9 6 14 -2 6 -10 13 -9 31 4 13 9 36 16 51 16 16 0 28
4 28 9 0 5 22 11 50 15 27 4 52 10 54 15 3 5 28 11 55 15 28 4 53 11 56 15 3
5 28 12 55 16 28 4 50 10 50 15 0 4 20 11 45 14 24 4 47 11 50 15 2 5 22 12
42 16 21 4 49 15 64 26 15 10 32 19 39 19 13 0 75 25 100 41 8 5 22 12 30 15
8 3 22 10 30 15 8 5 29 16 45 24 71 37 135 86 135 104 0 6 7 11 15 11 8 0 15
6 15 13 0 7 9 18 19 24 25 15 76 121 72 151 -1 12 1 22 6 22 5 0 9 29 9 65 -1
36 -5 65 -10 65 -4 0 -6 10 -3 21 3 12 1 31 -5 43 -21 41 -26 52 -33 84 -3 18
-10 32 -15 32 -4 0 -11 12 -15 27 -3 15 -16 37 -28 48 -12 12 -27 30 -33 40
-6 10 -19 23 -29 29 -10 6 -29 21 -41 34 -11 12 -25 22 -29 22 -4 0 -29 10
-54 21 -25 12 -57 27 -70 33 -37 17 -399 15 -410 -3 -6 -9 -10 -10 -16 -2 -4
8 -11 9 -18 2 -7 -5 -34 -12 -62 -16 -27 -4 -54 -11 -60 -15 -5 -5 -32 -11
-60 -15 -27 -4 -56 -12 -62 -17 -18 -14 -16 4 2 28 8 10 15 31 15 46 0 15 5
30 10 33 6 4 8 15 5 25 -3 10 -1 21 5 25 5 3 10 19 10 35 0 16 4 31 9 34 8 6
21 119 24 209 0 20 5 37 9 37 11 0 10 397 0 404 -10 6 -9 36 1 53 4 6 3 13 -2
15 -5 1 -10 35 -12 73 -1 39 -5 74 -8 80 -3 5 -4 24 -2 42 1 18 -1 38 -5 45
-4 7 -9 28 -11 48 -5 46 -11 94 -13 100 -1 3 -1 15 0 28 1 12 -2 22 -7 22 -5
0 -9 16 -10 36 -1 20 -7 40 -13 44 -9 6 -9 9 -1 15 9 5 9 10 0 21 -6 7 -9 20
-6 29 4 8 2 17 -3 20 -6 4 -10 24 -10 45 0 21 -4 41 -9 45 -5 3 -13 30 -16 60
-4 30 -12 55 -17 55 -7 0 -7 4 0 13 7 8 6 18 -4 31 -8 11 -14 32 -14 47 0 15
-4 30 -9 33 -5 3 -12 23 -16 43 -4 21 -11 44 -17 51 -7 8 -7 12 2 12 9 0 8 5
-3 18 -10 10 -17 31 -17 45 0 15 -4 27 -9 27 -5 0 -13 14 -16 32 -4 18 -11 39
-15 48 -4 8 -16 35 -25 60 -9 25 -23 59 -30 75 -7 17 -21 51 -32 77 -10 27
-21 48 -25 48 -5 0 -8 11 -8 25 0 14 -7 28 -15 31 -8 4 -15 14 -15 24 0 16
-21 62 -60 133 -51 92 -74 137 -69 140 2 1 20 14 39 28 19 13 52 33 74 44 21
11 40 26 43 33 3 6 11 12 17 12 7 0 23 11 36 25 13 14 28 25 34 25 15 0 166
154 166 169 0 6 6 11 14 11 7 0 17 8 20 18 11 29 32 61 53 79 10 10 23 25 26
33 4 8 18 33 32 55 13 22 27 48 31 58 3 9 10 17 14 17 5 0 12 14 15 32 4 17
18 51 31 76 13 24 26 59 30 78 3 19 10 37 15 39 4 3 11 27 15 53 3 26 10 52
14 57 5 6 10 30 12 55 2 25 7 51 12 58 4 7 7 22 6 35 -1 12 -1 24 0 27 7 12 5
260 -1 260 -4 0 -5 18 -2 40 4 26 1 46 -8 57 -11 13 -11 17 -1 21 9 3 10 8 3
16 -6 7 -12 26 -14 42 -2 17 -7 35 -11 42 -4 7 -9 26 -11 43 -3 17 -8 36 -14
43 -5 6 -12 27 -16 46 -4 19 -11 40 -15 45 -4 6 -11 25 -15 43 -3 17 -10 32
-15 32 -5 0 -11 14 -15 30 -4 17 -10 30 -15 30 -5 0 -11 14 -15 30 -4 17 -10
30 -14 30 -3 0 -15 17 -26 38 -10 20 -36 58 -57 84 -21 26 -38 50 -38 55 0 11
-206 217 -222 222 -7 2 -29 17 -48 33 -55 45 -59 48 -65 48 -7 0 -68 42 -75
52 -3 3 -18 10 -33 13 -15 4 -27 11 -27 16 0 5 -5 9 -11 9 -11 0 -50 16 -114
45 -16 8 -43 17 -60 21 -16 4 -34 10 -40 14 -5 4 -26 11 -45 15 -19 4 -40 12
-47 17 -7 6 -14 5 -18 -3 -6 -8 -9 -8 -15 0 -3 7 -40 14 -81 17 -41 3 -81 8
-89 11 -24 11 -254 11 -267 1 -7 -5 -22 -9 -35 -8 -13 1 -25 1 -28 0 -3 -1
-27 -4 -55 -7 -27 -2 -54 -8 -60 -12 -5 -5 -30 -11 -55 -15 -24 -4 -49 -11
-55 -15 -5 -5 -23 -11 -40 -15 -16 -4 -43 -13 -60 -20 -16 -8 -60 -28 -96 -45
-37 -17 -72 -31 -78 -31 -6 0 -11 -3 -11 -8 0 -4 -17 -16 -37 -27 -21 -11 -61
-39 -89 -62 -28 -24 -55 -43 -60 -43 -13 0 -214 -204 -214 -217 0 -6 -7 -16
-15 -23 -20 -17 -97 -135 -119 -182 -9 -21 -21 -38 -26 -38 -6 0 -10 -9 -10
-20 0 -11 -9 -37 -20 -57 -11 -21 -20 -45 -20 -55 0 -9 -4 -19 -9 -22 -5 -3
-12 -22 -16 -42 -10 -56 -25 -74 -55 -67 -14 3 -30 10 -37 15 -6 5 -17 8 -25
7 -7 -1 -26 3 -41 9 -16 7 -32 10 -37 7 -5 -3 -11 -1 -14 4 -3 5 -29 12 -56
16 -28 4 -50 12 -50 18 0 8 -4 7 -12 -1 -7 -7 -16 -8 -23 -2 -6 5 -41 12 -76
16 -35 3 -69 10 -74 14 -6 5 -53 12 -105 15 -52 4 -100 11 -107 17 -7 6 -14 5
-18 -3 -6 -8 -10 -7 -16 2 -12 20 -748 20 -772 1 -11 -10 -17 -10 -22 -1 -5 7
-10 8 -14 1 -3 -6 -51 -13 -106 -17 -55 -4 -105 -11 -110 -15 -6 -5 -35 -11
-65 -15 -30 -3 -59 -10 -65 -15 -7 -6 -16 -5 -23 2 -8 8 -12 9 -12 1 0 -6 -27
-14 -60 -18 -33 -4 -63 -11 -66 -16 -3 -5 -16 -9 -29 -9 -13 0 -26 -4 -29 -9
-3 -5 -15 -7 -25 -4 -10 3 -31 -3 -45 -12 -21 -14 -29 -15 -41 -5 -8 7 -15 22
-15 34 0 11 -6 33 -14 48 -8 15 -17 40 -20 55 -8 36 -70 160 -92 184 -10 11
-13 19 -8 19 5 0 5 4 -1 8 -12 8 -32 39 -45 69 -5 12 -18 28 -30 35 -11 7 -20
18 -20 24 0 5 -13 23 -30 39 -16 16 -30 34 -30 40 0 15 -93 105 -108 105 -7 0
-12 7 -12 15 0 8 -6 15 -13 15 -8 0 -22 9 -32 20 -10 11 -23 20 -28 20 -5 0
-20 10 -31 23 -26 26 -54 45 -78 53 -10 4 -18 10 -18 14 0 10 -203 110 -223
110 -9 0 -18 4 -21 9 -3 5 -22 12 -42 16 -20 3 -47 13 -60 22 -13 8 -28 12
-33 8 -6 -3 -21 0 -33 6 -13 7 -33 14 -45 16 -40 5 -78 12 -83 13 -3 1 -22 1
-42 0 -21 -1 -38 2 -38 7 0 10 -237 12 -248 2z m2759 -1019 c624 -31 1149
-185 1640 -481 838 -504 1443 -1383 1647 -2394 138 -680 136 -1140 -6 -1545
-31 -89 -133 -277 -196 -360 -173 -231 -462 -444 -781 -575 -49 -20 -99 -41
-110 -46 -209 -90 -698 -201 -1110 -253 -707 -88 -1783 -88 -2490 0 -412 52
-901 163 -1110 253 -11 5 -60 26 -110 46 -271 112 -482 252 -662 438 -289 300
-423 676 -423 1182 0 160 25 436 55 610 9 50 20 115 25 146 162 950 707 1831
1465 2366 522 368 1131 575 1800 612 83 4 153 9 156 10 3 0 98 -4 210 -9z m4
-6310 c654 -40 1203 -318 1598 -810 104 -129 101 -117 88 -294 -30 -405 -103
-609 -278 -777 -164 -157 -379 -261 -703 -339 -489 -117 -1223 -119 -1720 -4
-337 78 -555 182 -723 343 -175 168 -247 369 -278 777 -13 176 -16 166 87 294
199 247 430 435 704 574 267 136 570 217 875 236 176 10 186 10 350 0z"/>
<path d="M3626 8064 c-128 -17 -207 -39 -321 -93 -357 -167 -646 -499 -744
-853 -87 -314 -5 -665 207 -890 239 -253 603 -285 1017 -89 142 67 500 339
633 481 240 254 324 512 263 812 -36 176 -91 294 -188 399 -123 132 -271 202
-495 234 -125 18 -227 17 -372 -1z m372 -320 c242 -70 374 -268 389 -584 7
-168 -6 -232 -58 -282 -33 -31 -47 -37 -102 -43 -34 -4 -74 -5 -88 -3 -22 3
-21 5 16 25 51 27 97 75 127 133 19 38 23 60 23 135 0 103 -17 145 -82 209
-144 143 -387 103 -480 -78 -22 -42 -27 -65 -27 -131 -1 -99 22 -154 90 -221
l48 -46 -64 6 c-400 43 -464 68 -490 191 -25 120 8 307 78 440 65 123 167 206
302 246 76 23 245 24 318 3z m200 -494 c30 -28 28 -64 -5 -90 -63 -49 -133 22
-87 88 19 28 63 29 92 2z"/>
<path d="M6794 8065 c-295 -45 -488 -174 -598 -398 -123 -252 -127 -548 -11
-778 94 -186 229 -324 559 -574 243 -183 412 -260 649 -293 99 -13 132 -14
211 -4 181 23 286 72 407 192 87 87 132 153 185 275 195 444 10 986 -456 1337
-112 84 -284 175 -390 207 -148 44 -399 60 -556 36z m350 -325 c226 -70 366
-293 366 -582 0 -186 -37 -237 -200 -272 -73 -15 -347 -37 -363 -28 -5 2 7 15
26 28 77 52 125 168 113 271 -29 246 -333 352 -509 177 -67 -66 -82 -106 -82
-214 0 -86 3 -99 28 -142 26 -43 77 -95 123 -126 16 -11 12 -12 -31 -7 -158
19 -197 74 -197 275 -1 252 91 462 244 561 60 39 155 75 218 83 64 8 201 -5
264 -24z m-445 -502 c35 -61 -31 -123 -87 -81 -35 26 -40 65 -12 93 30 30 79
24 99 -12z"/>
<path d="M5310 6751 c-95 -16 -154 -55 -182 -118 -25 -57 -17 -94 33 -144 77
-77 192 -111 301 -89 79 15 128 40 177 89 50 50 58 87 33 144 -33 75 -108 113
-234 121 -46 2 -103 1 -128 -3z"/>
<path d="M4778 6119 c-36 -21 -39 -43 -23 -176 23 -182 51 -268 127 -388 37
-59 124 -136 198 -177 107 -58 174 -73 340 -73 133 0 153 3 234 29 210 69 308
205 365 511 44 233 43 222 25 250 -22 34 -61 43 -93 22 -117 -75 -246 -100
-376 -74 -44 9 -91 26 -105 37 -60 49 -80 49 -140 0 -14 -11 -59 -27 -100 -36
-124 -26 -263 -4 -351 56 -46 31 -72 36 -101 19z m666 -184 c16 -9 72 -22 125
-31 95 -15 135 -13 284 12 30 5 37 4 37 -9 0 -22 -28 -142 -47 -202 -56 -173
-163 -248 -373 -261 -272 -18 -437 76 -529 303 -16 39 -33 97 -36 129 -7 53
-6 57 11 49 11 -4 63 -14 117 -22 87 -13 108 -13 196 1 53 8 111 22 127 31 36
19 52 19 88 0z"/>
</g>
</svg>
